# xmcd
#
# Track frame offsets:
#	150
#	16619
#	32486
#	48731
#	64467
#	82893
#	104647
#	125653
#	140233
#	158238
#
# Disc length: 2201 seconds
#
# Revision: 1
# Processed by: cddbd v1.5.2PL0 Copyright (c) Steve Scherf et al.
# Submitted via: audiograbber 1.83.01
#
DISCID=8a08970a
DTITLE=Samuel Racine - Buddy-Sam Walker
DYEAR=2010
DGENRE=Country
TTITLE0=Le vieux château
TTITLE1=Ma p'tite Marie
TTITLE2=Le fils du maire
TTITLE3=Le gars du tracteur
TTITLE4=Dariou squié rendu Billy?
TTITLE5=Barbaro
TTITLE6=En face d'un ranch
TTITLE7=Le cavalier .émotif
TTITLE8=Donne-moé ton Gun
TTITLE9=La Jonction Bluegrass
EXTD=www.myspace.com/BUDDYSAMWALKER\nLes Productions LE-DO 2010\n-Contact :Syr9
EXTD=2@hotmail.com\n\nSoumis à freedb par BigueNique@yahoo.ca\nhttp://radio.fia
EXTD=tlux.tk
EXTT0=
EXTT1=
EXTT2=
EXTT3=
EXTT4=
EXTT5=
EXTT6=
EXTT7=
EXTT8=
EXTT9=
PLAYORDER=
